<svg width="400" height="362" viewBox="0 0 400 362" fill="none" xmlns="http://www.w3.org/2000/svg">
<path fill-rule="evenodd" clip-rule="evenodd" d="M272.185 0C292.059 0 310.425 10.603 320.362 27.8144L392.547 152.843C402.484 170.055 402.484 191.261 392.547 208.472L320.362 333.505C310.425 350.716 292.059 361.32 272.185 361.32H127.815C107.941 361.32 89.5751 350.716 79.6379 333.505L7.45267 208.472C-2.48413 191.261 -2.48432 170.055 7.45267 152.843L79.6379 27.8144C89.575 10.6029 107.941 0 127.815 0H272.185ZM298.257 63.2886C295.467 59.098 290.228 57.1657 285.333 58.6435L284.698 58.8554C278.461 61.132 275.436 68.2431 278.115 74.3175L278.4 74.9187L320.634 157.64C326.443 169.017 326.456 182.492 320.669 193.879L303.52 227.623L302.906 228.739C296.262 239.964 280.314 241.415 271.8 231.2L268.245 226.931L267.393 225.833C263.629 220.584 262.776 213.776 265.122 207.758L265.672 206.483L276.086 184.602C278.392 179.758 276.399 173.958 271.601 171.558L270.68 171.151C266.029 169.388 260.701 171.385 258.406 175.917L239.081 214.099L238.419 215.509C235.525 222.164 235.47 229.72 238.268 236.416L238.908 237.839L276.242 314.28C278.279 318.448 284.067 318.666 286.458 314.825L286.683 314.44L353.055 188.456C357.215 180.557 357.145 171.098 352.869 163.262L298.784 64.1579L298.257 63.2886ZM117.547 57.9125C112.652 56.4344 107.413 58.3666 104.624 62.5576L104.096 63.427L50.0156 162.531C45.7391 170.368 45.6692 179.826 49.8296 187.725L116.198 313.709L116.418 314.094C118.809 317.937 124.6 317.717 126.638 313.549L163.972 237.108L164.612 235.685C167.411 228.989 167.355 221.434 164.461 214.778L163.799 213.368L144.475 175.186C142.179 170.654 136.851 168.656 132.2 170.42L131.279 170.827C126.48 173.227 124.484 179.027 126.79 183.871L137.209 205.752L137.758 207.028C140.105 213.045 139.248 219.853 135.483 225.102L134.635 226.201L131.08 230.469C122.566 240.684 106.618 239.234 99.9743 228.008L99.3602 226.893L82.2113 193.144C76.4247 181.757 76.4373 168.285 82.2459 156.909L124.48 74.1877L124.766 73.5865C127.445 67.5114 124.417 60.4004 118.178 58.1245L117.547 57.9125ZM176.229 140.123C169.688 140.123 164.383 145.428 164.383 151.97C164.384 158.511 169.688 163.812 176.229 163.812C182.77 163.811 188.071 158.51 188.071 151.97C188.071 145.429 182.77 140.124 176.229 140.123ZM227.144 140.123C220.602 140.123 215.298 145.428 215.298 151.97C215.298 158.511 220.603 163.812 227.144 163.812C233.684 163.81 238.985 158.51 238.986 151.97C238.986 145.429 233.685 140.124 227.144 140.123ZM201.972 90.5581C192.626 90.5581 185.049 98.1319 185.048 107.478C185.048 116.824 192.626 124.402 201.972 124.402C211.318 124.401 218.892 116.824 218.892 107.478C218.891 98.1325 211.317 90.559 201.972 90.5581ZM150.703 95.6314C144.161 95.6314 138.857 100.936 138.857 107.478C138.857 114.019 144.162 119.32 150.703 119.32C157.244 119.319 162.544 114.018 162.545 107.478C162.545 100.936 157.244 95.6319 150.703 95.6314ZM252.177 95.6314C245.636 95.6314 240.331 100.936 240.331 107.478C240.332 114.019 245.636 119.32 252.177 119.32C258.718 119.32 264.023 114.019 264.024 107.478C264.024 100.936 258.719 95.6315 252.177 95.6314ZM176.229 52.1516C169.688 52.1516 164.383 57.4563 164.383 63.9979C164.384 70.5387 169.688 75.8399 176.229 75.8399C182.77 75.8391 188.071 70.5382 188.071 63.9979C188.071 57.4568 182.77 52.1524 176.229 52.1516ZM227.144 52.1516C220.602 52.1516 215.298 57.4563 215.298 63.9979C215.299 70.5387 220.603 75.8399 227.144 75.8399C233.684 75.8392 238.985 70.5382 238.986 63.9979C238.986 57.4568 233.685 52.1523 227.144 52.1516Z" fill="black"/>
</svg>













