<svg width="400" height="83" viewBox="0 0 400 83" fill="none" xmlns="http://www.w3.org/2000/svg">
<path fill-rule="evenodd" clip-rule="evenodd" d="M61.4572 0.420166C65.9446 0.420166 70.0914 2.81423 72.3351 6.70044L88.6339 34.9309C90.8776 38.8171 90.8776 43.6052 88.6339 47.4915L72.3351 75.7229C70.0913 79.6089 65.9445 82.0032 61.4572 82.0032H28.8595C24.3722 82.0032 20.2253 79.609 17.9816 75.7229L1.68275 47.4915C-0.560896 43.6053 -0.560938 38.8171 1.68275 34.9309L17.9816 6.70044C20.2253 2.81422 24.3721 0.420166 28.8595 0.420166H61.4572ZM67.3439 14.7102C66.714 13.764 65.5311 13.3277 64.4259 13.6614L64.2824 13.7092C62.8742 14.2233 62.1912 15.8289 62.796 17.2004L62.8605 17.3362L72.3966 36.0139C73.7082 38.5827 73.7112 41.6253 72.4044 44.1965L68.5324 51.8157L68.3937 52.0676C66.8936 54.6021 63.2926 54.9297 61.3703 52.6233L60.5675 51.6594L60.3751 51.4114C59.5253 50.2263 59.3326 48.689 59.8624 47.3303L59.9865 47.0422L62.338 42.1018C62.8586 41.008 62.4087 39.6984 61.3253 39.1565L61.1173 39.0647C60.0672 38.6665 58.8641 39.1175 58.3458 40.1409L53.9826 48.762L53.8331 49.0803C53.1797 50.583 53.1671 52.2891 53.799 53.801L53.9435 54.1223L62.3732 71.3821C62.8332 72.3231 64.1399 72.3722 64.6798 71.5051L64.7306 71.4182L79.7169 42.9719C80.6561 41.1885 80.6405 39.0527 79.6749 37.2834L67.463 14.9065L67.3439 14.7102ZM26.5411 13.4963C25.4359 13.1626 24.253 13.5989 23.6232 14.5452L23.504 14.7415L11.2931 37.1184C10.3275 38.8878 10.3117 41.0234 11.2511 42.8069L26.2365 71.2532L26.2863 71.3401C26.826 72.2076 28.1338 72.1581 28.5939 71.217L37.0236 53.9573L37.1681 53.636C37.8 52.124 37.7874 50.418 37.1339 48.9153L36.9845 48.5969L32.6212 39.9758C32.1029 38.9524 30.8999 38.5014 29.8497 38.8997L29.6417 38.9915C28.5582 39.5333 28.1075 40.8429 28.6281 41.9368L30.9806 46.8772L31.1046 47.1653C31.6345 48.5241 31.441 50.0612 30.591 51.2463L30.3995 51.4944L29.5968 52.4583C27.6744 54.7646 24.0734 54.4372 22.5734 51.9026L22.4347 51.6506L18.5626 44.0305C17.2561 41.4593 17.2589 38.4176 18.5704 35.8489L28.1066 17.1711L28.171 17.0354C28.776 15.6637 28.0922 14.0581 26.6837 13.5442L26.5411 13.4963ZM39.7911 32.0588C38.3141 32.0588 37.1163 33.2566 37.1163 34.7336C37.1165 36.2105 38.3142 37.4075 39.7911 37.4075C41.2679 37.4073 42.4648 36.2104 42.465 34.7336C42.465 33.2567 41.268 32.059 39.7911 32.0588ZM51.2872 32.0588C49.8102 32.0588 48.6124 33.2566 48.6124 34.7336C48.6126 36.2105 49.8103 37.4075 51.2872 37.4075C52.764 37.4072 53.9609 36.2104 53.9611 34.7336C53.9611 33.2568 52.7641 32.0591 51.2872 32.0588ZM45.6036 20.8674C43.4934 20.8674 41.7826 22.5775 41.7824 24.6877C41.7824 26.7981 43.4933 28.509 45.6036 28.509C47.7138 28.5088 49.424 26.798 49.424 24.6877C49.4238 22.5777 47.7137 20.8676 45.6036 20.8674ZM34.0275 22.0129C32.5505 22.0129 31.3527 23.2107 31.3527 24.6877C31.3528 26.1646 32.5505 27.3616 34.0275 27.3616C35.5043 27.3615 36.7011 26.1646 36.7013 24.6877C36.7013 23.2108 35.5044 22.0131 34.0275 22.0129ZM56.9396 22.0129C55.4626 22.0129 54.2648 23.2107 54.2648 24.6877C54.2649 26.1646 55.4627 27.3616 56.9396 27.3616C58.4165 27.3615 59.6142 26.1646 59.6144 24.6877C59.6144 23.2107 58.4166 22.013 56.9396 22.0129ZM39.7911 12.1956C38.3141 12.1956 37.1163 13.3933 37.1163 14.8704C37.1165 16.3472 38.3142 17.5442 39.7911 17.5442C41.2679 17.544 42.4648 16.3471 42.465 14.8704C42.465 13.3934 41.268 12.1957 39.7911 12.1956ZM51.2872 12.1956C49.8102 12.1956 48.6124 13.3933 48.6124 14.8704C48.6126 16.3472 49.8103 17.5442 51.2872 17.5442C52.764 17.544 53.9609 16.3471 53.9611 14.8704C53.9611 13.3934 52.7641 12.1957 51.2872 12.1956Z" fill="currentColor"/>
<path d="M101.25 79.8803L129.564 0H136.238L164.659 79.8803H157.231L151.095 62.2248C149.911 59.1028 147.973 57.7033 144.743 57.7033H120.844C117.614 57.7033 115.569 59.1028 114.492 62.2248L108.356 79.8803H101.25ZM142.159 51.4593C145.174 51.4593 146.681 49.3062 145.712 46.5071L134.839 15.2871C133.978 12.7033 131.394 12.7033 130.533 15.2871L119.767 46.5071C118.798 49.3062 120.413 51.4593 123.32 51.4593H142.159Z" fill="currentColor"/>
<path d="M254.691 81.5788L254.174 81.5827C254.499 81.5827 254.821 81.5772 255.141 81.5681C254.992 81.5723 254.841 81.5765 254.691 81.5788ZM257.067 81.4557C256.446 81.5105 255.818 81.5482 255.182 81.5671C255.818 81.5482 256.446 81.5105 257.067 81.4557ZM254.174 23.7184C259.538 23.7186 264.327 24.9597 268.565 27.4255C272.815 29.8981 276.173 33.2942 278.649 37.6276L278.655 37.6364L278.661 37.6462C281.204 41.8852 282.482 46.6308 282.482 51.9059C282.482 57.1767 281.281 61.9092 278.892 66.1257L278.657 66.5329L278.654 66.5378C276.254 70.6616 273.023 73.9828 268.95 76.5104L268.553 76.7526C264.317 79.2945 259.532 80.5728 254.174 80.5729C248.902 80.5729 244.116 79.2972 239.794 76.7526C235.669 74.2771 232.344 70.9691 229.814 66.8171L229.572 66.4118C227.106 62.0925 225.867 57.2648 225.867 51.9059C225.867 46.6297 227.104 41.884 229.567 37.6462H229.568C232.124 33.3858 235.526 30.0233 239.783 27.5466L239.788 27.5427C244.111 24.9954 248.899 23.7184 254.174 23.7184ZM280.544 65.1511C280.23 65.7926 279.891 66.4245 279.526 67.0446C276.963 71.4501 273.478 74.9746 269.073 77.6179C268.293 78.0859 267.494 78.511 266.679 78.8962C267.35 78.5791 268.011 78.2352 268.658 77.862L269.073 77.6179C273.478 74.9746 276.963 71.4498 279.526 67.0446C279.891 66.4245 280.23 65.7926 280.544 65.1511ZM254.174 29.7497C250.085 29.7497 246.379 30.7117 243.087 32.653C240.012 34.467 237.56 36.915 235.743 39.9831L235.386 40.6061C233.531 43.899 232.619 47.676 232.619 51.9059C232.619 56.2173 233.532 60.1092 235.381 63.5563L235.386 63.5661C237.235 66.9272 239.806 69.5842 243.087 71.5192L243.711 71.8708C246.845 73.576 250.34 74.4225 254.174 74.4225C258.335 74.4224 262.041 73.4632 265.259 71.5182L265.26 71.5192C268.547 69.5805 271.118 66.8789 272.965 63.4372V63.4362C274.893 59.993 275.849 56.1419 275.849 51.9059C275.849 47.7966 274.95 44.1148 273.126 40.8903L272.946 40.5798C271.098 37.2311 268.532 34.5831 265.259 32.653C262.041 30.7082 258.335 29.7498 254.174 29.7497ZM252.485 73.3513C252.33 73.3404 252.176 73.33 252.023 73.3161C252.176 73.33 252.33 73.3404 252.485 73.3513ZM251.895 73.3024C251.719 73.2854 251.544 73.2678 251.37 73.2468C251.544 73.2678 251.719 73.2854 251.895 73.3024ZM251.128 73.2145C250.97 73.1937 250.812 73.1723 250.656 73.1481C250.812 73.1723 250.97 73.1937 251.128 73.2145ZM250.461 73.1159C250.319 73.0926 250.177 73.0687 250.037 73.0427C250.177 73.0687 250.319 73.0926 250.461 73.1159ZM249.742 72.985C249.61 72.9587 249.479 72.9318 249.348 72.903C249.479 72.9318 249.61 72.9587 249.742 72.985ZM249.125 72.8522C248.977 72.818 248.831 72.7822 248.685 72.7448C248.831 72.7821 248.977 72.818 249.125 72.8522ZM248.469 72.6882C248.333 72.6516 248.197 72.6132 248.062 72.5739C248.197 72.6132 248.333 72.6516 248.469 72.6882ZM247.811 72.4997C247.681 72.4601 247.552 72.4189 247.423 72.3766C247.552 72.4189 247.681 72.4601 247.811 72.4997ZM247.199 72.3015C247.063 72.2552 246.929 72.2071 246.794 72.1579C246.929 72.2071 247.063 72.2552 247.199 72.3015ZM246.558 72.071C246.438 72.0253 246.32 71.9774 246.201 71.9294C246.32 71.9774 246.438 72.0253 246.558 72.071ZM245.951 71.8278C245.845 71.7833 245.74 71.7366 245.634 71.6901C245.74 71.7366 245.845 71.7833 245.951 71.8278ZM245.319 71.5495C245.226 71.5067 245.135 71.461 245.044 71.4167C245.135 71.461 245.226 71.5067 245.319 71.5495ZM244.758 71.279C244.637 71.2182 244.518 71.1548 244.398 71.0915C244.518 71.1548 244.637 71.2182 244.758 71.279ZM265.297 70.3122C265.116 70.4269 264.933 70.5395 264.748 70.6491C264.933 70.5395 265.116 70.4269 265.297 70.3122ZM265.827 69.9636C265.784 69.9923 265.741 70.0201 265.699 70.0485C265.741 70.0201 265.784 69.9923 265.827 69.9636ZM266.381 69.5729C266.296 69.6353 266.209 69.6954 266.123 69.7565C266.209 69.6954 266.296 69.6353 266.381 69.5729ZM266.894 69.1843C266.802 69.2567 266.708 69.3272 266.614 69.3981C266.708 69.3273 266.802 69.2567 266.894 69.1843ZM267.379 68.7897C267.303 68.8536 267.226 68.9164 267.149 68.9792C267.226 68.9165 267.303 68.8536 267.379 68.7897ZM267.862 68.3708C267.799 68.4272 267.736 68.4832 267.672 68.5388C267.736 68.4832 267.799 68.4272 267.862 68.3708ZM239.891 67.8405H239.892H239.891ZM268.345 67.9216C268.27 67.9936 268.195 68.0646 268.119 68.1354C268.195 68.0646 268.27 67.9936 268.345 67.9216ZM268.794 67.4733C268.725 67.5452 268.654 67.6165 268.584 67.6872C268.654 67.6165 268.725 67.5452 268.794 67.4733ZM269.214 67.0261C269.155 67.0912 269.096 67.1562 269.036 67.2204C269.096 67.1562 269.155 67.0912 269.214 67.0261ZM235.38 61.1999C235.647 61.8415 235.944 62.4686 236.272 63.0798C236.933 64.2813 237.689 65.3872 238.542 66.3972C237.689 65.3871 236.932 64.2814 236.271 63.0798C235.943 62.4687 235.647 61.8415 235.38 61.1999ZM269.65 66.5329C269.595 66.598 269.539 66.6629 269.483 66.7272C269.539 66.6629 269.595 66.598 269.65 66.5329ZM270.059 66.0329C270.002 66.1043 269.947 66.1763 269.889 66.2468C269.947 66.1763 270.002 66.1043 270.059 66.0329ZM270.43 65.5495C270.386 65.6091 270.343 65.6702 270.298 65.7292C270.343 65.6702 270.386 65.6091 270.43 65.5495ZM272.698 61.7614C272.666 61.8282 272.632 61.8941 272.599 61.9606C272.632 61.8941 272.666 61.8282 272.698 61.7614ZM235.315 61.0388C235.254 60.8881 235.193 60.737 235.135 60.5847C235.193 60.737 235.254 60.8881 235.315 61.0388ZM273.238 60.5339C273.213 60.5963 273.186 60.6582 273.161 60.7204C273.186 60.6582 273.213 60.5963 273.238 60.5339ZM235.055 60.3669C235.003 60.2252 234.951 60.0833 234.902 59.9401C234.951 60.0833 235.003 60.2252 235.055 60.3669ZM273.493 59.8718C273.461 59.9587 273.428 60.0451 273.395 60.1315C273.428 60.0451 273.461 59.9587 273.493 59.8718ZM234.836 59.7429C234.785 59.59 234.735 59.4364 234.687 59.2819C234.735 59.4364 234.785 59.59 234.836 59.7429ZM273.702 59.2682C273.677 59.343 273.652 59.4175 273.627 59.4919C273.652 59.4175 273.677 59.343 273.702 59.2682ZM234.621 59.0612C234.579 58.9202 234.538 58.7787 234.499 58.6364C234.538 58.7787 234.579 58.9203 234.621 59.0612ZM273.9 58.6364C273.882 58.6955 273.864 58.7543 273.846 58.8132C273.864 58.7543 273.882 58.6955 273.9 58.6364ZM234.43 58.3835C234.388 58.2245 234.349 58.0646 234.31 57.904C234.349 58.0646 234.388 58.2245 234.43 58.3835ZM274.103 57.904C274.08 57.9931 274.057 58.082 274.033 58.1706C274.057 58.082 274.08 57.9931 274.103 57.904ZM283.316 55.3649C283.217 56.3178 283.077 57.253 282.895 58.1706C283.077 57.253 283.217 56.3178 283.316 55.3649ZM234.269 57.7321C234.231 57.5699 234.196 57.4067 234.162 57.2429C234.196 57.4067 234.231 57.5699 234.269 57.7321ZM274.263 57.2429C274.239 57.3497 274.214 57.456 274.188 57.5622C274.214 57.456 274.239 57.3497 274.263 57.2429ZM234.119 57.0368C234.082 56.8558 234.048 56.6739 234.016 56.4909C234.048 56.6739 234.082 56.8558 234.119 57.0368ZM274.403 56.5778C274.383 56.6816 274.362 56.7852 274.34 56.8884C274.362 56.7851 274.383 56.6816 274.403 56.5778ZM233.989 56.3327C233.96 56.164 233.934 55.9944 233.909 55.8239C233.934 55.9943 233.96 56.164 233.989 56.3327ZM274.536 55.8259C274.517 55.9444 274.498 56.0626 274.477 56.1804C274.498 56.0626 274.517 55.9444 274.536 55.8259ZM233.877 55.6071C233.851 55.4258 233.829 55.2435 233.808 55.0602C233.829 55.2434 233.851 55.4258 233.877 55.6071ZM274.626 55.2038C274.613 55.3017 274.601 55.3994 274.586 55.4968C274.601 55.3994 274.613 55.3017 274.626 55.2038ZM282.836 45.5251C283.273 47.5658 283.491 49.6924 283.491 51.905C283.491 53.0765 283.432 54.2238 283.317 55.3464C283.415 54.392 283.472 53.4201 283.487 52.4304L283.491 51.9059C283.491 49.8635 283.305 47.8939 282.933 45.9977L282.836 45.5251ZM233.671 53.4763C233.698 53.9551 233.738 54.4277 233.789 54.8942C233.738 54.4277 233.698 53.9551 233.671 53.4763ZM274.718 54.3952C274.704 54.5376 274.691 54.6796 274.674 54.821C274.691 54.6796 274.704 54.5376 274.718 54.3952ZM274.77 53.7819C274.762 53.8909 274.756 53.9997 274.747 54.1081C274.756 53.9997 274.762 53.8909 274.77 53.7819ZM233.628 51.905C233.628 52.423 233.641 52.9347 233.669 53.4391C233.655 53.1882 233.645 52.9356 233.638 52.6813L233.628 51.9059C233.628 51.6617 233.631 51.4192 233.637 51.1784C233.631 51.4189 233.628 51.6611 233.628 51.905ZM224.861 52.4265C224.858 52.2533 224.857 52.0792 224.857 51.905V51.9059L224.861 52.4225C224.861 52.4238 224.861 52.4251 224.861 52.4265ZM233.651 50.8327C233.656 50.7037 233.66 50.575 233.667 50.447C233.66 50.575 233.656 50.7037 233.651 50.8327ZM274.799 50.4567C274.806 50.5702 274.809 50.6842 274.814 50.7985C274.809 50.6842 274.806 50.5702 274.799 50.4567ZM233.685 50.1716C233.695 50.0166 233.705 49.8622 233.717 49.7087C233.705 49.8622 233.695 50.0166 233.685 50.1716ZM274.748 49.7331C274.757 49.8489 274.766 49.9651 274.774 50.0817C274.766 49.9651 274.757 49.8489 274.748 49.7331ZM233.748 49.3903C233.76 49.256 233.773 49.1221 233.788 48.989C233.773 49.1221 233.76 49.256 233.748 49.3903ZM274.678 49.0368C274.691 49.1512 274.702 49.2663 274.713 49.3815C274.702 49.2663 274.691 49.1512 274.678 49.0368ZM233.819 48.7311C233.836 48.5942 233.853 48.4577 233.872 48.322C233.853 48.4577 233.836 48.5942 233.819 48.7311ZM274.587 48.3434C274.603 48.4517 274.617 48.5606 274.631 48.6696C274.617 48.5606 274.603 48.4517 274.587 48.3434ZM233.915 48.0397C233.938 47.8856 233.963 47.7323 233.99 47.5798C233.963 47.7323 233.938 47.8856 233.915 48.0397ZM274.474 47.6481C274.494 47.758 274.512 47.8685 274.53 47.9792C274.512 47.8685 274.494 47.758 274.474 47.6481ZM234.034 47.3395C234.059 47.2055 234.084 47.0719 234.111 46.9391C234.084 47.0719 234.059 47.2055 234.034 47.3395ZM274.337 46.9499C274.365 47.0779 274.391 47.2065 274.416 47.3356C274.391 47.2065 274.365 47.0779 274.337 46.9499ZM234.163 46.6931C234.196 46.5411 234.23 46.3902 234.266 46.2399C234.23 46.3902 234.196 46.5412 234.163 46.6931ZM274.182 46.28C274.214 46.4099 274.246 46.5404 274.276 46.6716C274.246 46.5403 274.214 46.4099 274.182 46.28ZM234.312 46.0485C234.349 45.8985 234.389 45.7496 234.429 45.6013C234.389 45.7496 234.349 45.8985 234.312 46.0485ZM274.019 45.6618C274.051 45.7733 274.081 45.8853 274.111 45.9977C274.081 45.8853 274.051 45.7734 274.019 45.6618ZM234.49 45.3796C234.535 45.2216 234.582 45.0649 234.63 44.9089C234.582 45.0649 234.535 45.2217 234.49 45.3796ZM273.837 45.0554C273.865 45.1412 273.893 45.2268 273.919 45.3132C273.893 45.2268 273.865 45.1412 273.837 45.0554ZM234.676 44.7604C234.727 44.6018 234.78 44.4445 234.835 44.2878C234.78 44.4444 234.727 44.6018 234.676 44.7604ZM273.609 44.3747C273.646 44.4795 273.684 44.5844 273.719 44.6901C273.684 44.5844 273.646 44.4795 273.609 44.3747ZM281.261 40.529C281.695 41.5497 282.065 42.5952 282.373 43.6657L282.5 44.1257C282.169 42.8939 281.756 41.6947 281.26 40.528L281.261 40.529ZM234.898 44.1042C234.954 43.9481 235.012 43.7934 235.072 43.6393C235.012 43.7934 234.954 43.9481 234.898 44.1042ZM273.34 43.6657C273.397 43.8056 273.451 43.9461 273.504 44.0876C273.451 43.9461 273.397 43.8056 273.34 43.6657ZM236.608 40.5007C236.493 40.6948 236.382 40.8921 236.272 41.0915C235.836 41.8641 235.454 42.6663 235.126 43.4977C235.371 42.8765 235.645 42.2716 235.951 41.6833L236.271 41.0925C236.381 40.8927 236.493 40.6952 236.608 40.5007ZM273.069 43.0231C273.134 43.1698 273.199 43.3169 273.26 43.4655C273.199 43.3169 273.134 43.1698 273.069 43.0231ZM272.742 42.3229C272.832 42.5051 272.919 42.6885 273.003 42.8737C272.919 42.6885 272.832 42.5051 272.742 42.3229ZM279.77 37.5417C280.17 38.2351 280.538 38.9411 280.874 39.6599L281.071 40.0925C280.942 39.8029 280.807 39.5157 280.668 39.2302C280.458 38.8018 280.238 38.3779 280.005 37.9587C279.928 37.8189 279.849 37.6795 279.769 37.5407L279.77 37.5417ZM237.025 39.8288C237.118 39.6852 237.211 39.5425 237.306 39.402C237.211 39.5425 237.118 39.6852 237.025 39.8288ZM237.465 39.1765C237.539 39.0709 237.612 38.9648 237.688 38.861C237.612 38.9648 237.539 39.0709 237.465 39.1765ZM237.803 38.7077C237.9 38.578 237.998 38.4498 238.097 38.3229C237.998 38.4498 237.9 38.578 237.803 38.7077ZM270.326 38.4206C270.351 38.4531 270.376 38.4856 270.401 38.5182C270.376 38.4856 270.351 38.4531 270.326 38.4206ZM238.195 38.1999C238.291 38.079 238.388 37.9588 238.487 37.8405C238.388 37.9588 238.291 38.079 238.195 38.1999ZM269.926 37.9206C269.96 37.9618 269.994 38.0031 270.028 38.0446C269.994 38.0031 269.96 37.9618 269.926 37.9206ZM238.653 37.6462C238.732 37.5539 238.811 37.4615 238.892 37.3708C238.811 37.4615 238.732 37.5539 238.653 37.6462ZM269.486 37.4069C269.54 37.4683 269.594 37.5303 269.648 37.5925C269.594 37.5303 269.54 37.4683 269.486 37.4069ZM239.072 37.1725C239.159 37.078 239.247 36.985 239.336 36.8923C239.247 36.985 239.159 37.078 239.072 37.1725ZM269.043 36.9245C269.106 36.9914 269.169 37.0588 269.232 37.1266C269.169 37.0588 269.106 36.9914 269.043 36.9245ZM277.987 34.7048C278.35 35.2204 278.7 35.7509 279.035 36.2966L279.283 36.7087C278.955 36.1555 278.613 35.6176 278.256 35.0944L277.987 34.7048ZM239.513 36.7087C239.614 36.6055 239.716 36.5029 239.82 36.402C239.716 36.5029 239.614 36.6055 239.513 36.7087ZM268.593 36.4684C268.667 36.5406 268.74 36.6129 268.812 36.6862C268.74 36.6129 268.667 36.5406 268.593 36.4684ZM239.937 36.2888C240.054 36.1771 240.172 36.0675 240.292 35.9587C240.172 36.0675 240.054 36.1771 239.937 36.2888ZM268.134 36.0309C268.21 36.101 268.286 36.1716 268.361 36.2429C268.286 36.1716 268.21 36.101 268.134 36.0309ZM240.42 35.8415C240.533 35.7408 240.647 35.6418 240.762 35.5436C240.647 35.6418 240.533 35.7408 240.42 35.8415ZM267.678 35.6247C267.747 35.6837 267.815 35.7425 267.882 35.8024C267.815 35.7425 267.747 35.6837 267.678 35.6247ZM240.919 35.4099C241.047 35.3029 241.177 35.1984 241.308 35.0944C241.177 35.1984 241.047 35.3029 240.919 35.4099ZM267.157 35.1891C267.235 35.2523 267.314 35.3153 267.391 35.3796C267.314 35.3153 267.235 35.2523 267.157 35.1891ZM241.409 35.0134C241.547 34.9056 241.687 34.8004 241.828 34.696C241.687 34.8004 241.547 34.9056 241.409 35.0134ZM266.644 34.7907C266.736 34.8598 266.828 34.9282 266.919 34.9987C266.828 34.9282 266.736 34.8598 266.644 34.7907ZM241.935 34.6159C242.073 34.5151 242.214 34.4167 242.355 34.319C242.214 34.4167 242.073 34.5151 241.935 34.6159ZM266.261 34.5095C266.3 34.537 266.339 34.5628 266.378 34.5905C266.339 34.5628 266.3 34.537 266.261 34.5095ZM275.512 31.6628C276.188 32.3849 276.828 33.1446 277.431 33.9431C276.828 33.1446 276.188 32.3849 275.512 31.6628ZM243.023 33.8757C242.838 33.9929 242.656 34.1128 242.476 34.235C242.483 34.2306 242.489 34.2258 242.496 34.2214L243.023 33.8757ZM264.196 33.2009C264.317 33.2683 264.435 33.3397 264.554 33.4099C264.435 33.3397 264.317 33.2683 264.196 33.2009ZM263.62 32.8942C263.727 32.9491 263.833 33.0061 263.939 33.0632C263.833 33.0061 263.727 32.9491 263.62 32.8942ZM263.041 32.61C263.157 32.6647 263.273 32.7219 263.388 32.779C263.273 32.7219 263.157 32.6647 263.041 32.61ZM262.454 32.3474C262.559 32.3922 262.663 32.4393 262.767 32.486C262.663 32.4393 262.559 32.3922 262.454 32.3474ZM261.855 32.1052C261.957 32.1446 262.058 32.1861 262.16 32.2272C262.058 32.1861 261.957 32.1446 261.855 32.1052ZM261.222 31.8747C261.341 31.9155 261.458 31.9576 261.576 32.0007C261.458 31.9576 261.341 31.9155 261.222 31.8747ZM260.6 31.6725C260.722 31.7098 260.842 31.7483 260.962 31.7878C260.842 31.7483 260.722 31.7098 260.6 31.6725ZM259.963 31.489C260.087 31.5223 260.21 31.5569 260.333 31.5925C260.21 31.5569 260.087 31.5223 259.963 31.489ZM259.294 31.321C259.431 31.3527 259.567 31.3862 259.702 31.4206C259.567 31.3862 259.431 31.3527 259.294 31.321ZM258.638 31.1804C258.778 31.2079 258.916 31.236 259.054 31.2663C258.916 31.236 258.778 31.2079 258.638 31.1804ZM272.571 28.944C273.421 29.623 274.228 30.3479 274.99 31.1188C274.228 30.3479 273.421 29.623 272.571 28.944ZM252.008 30.8552C251.537 30.8983 251.071 30.957 250.612 31.029L249.927 31.1472C250.607 31.0176 251.301 30.92 252.008 30.8552ZM257.91 31.0495C258.072 31.0757 258.234 31.1027 258.395 31.1325C258.234 31.1027 258.072 31.0757 257.91 31.0495ZM257.277 30.9577C257.433 30.9781 257.588 30.9986 257.742 31.0222C257.588 30.9986 257.433 30.9781 257.277 30.9577ZM256.495 30.8679C256.67 30.8846 256.845 30.9029 257.018 30.9235C256.845 30.9029 256.67 30.8846 256.495 30.8679ZM255.753 30.8083C255.957 30.8212 256.16 30.8362 256.361 30.8542C256.16 30.8362 255.957 30.8212 255.753 30.8083ZM269.483 26.7966C270.027 27.1245 270.556 27.4669 271.071 27.8249H271.07C270.941 27.7354 270.812 27.6469 270.681 27.5593C270.42 27.3841 270.155 27.2133 269.887 27.0456L269.483 26.7966ZM267.873 25.8942C268.137 26.0309 268.399 26.1716 268.659 26.3171L269.073 26.5534C268.677 26.3234 268.277 26.1036 267.873 25.8942ZM256.688 22.7995C257.308 22.8452 257.919 22.909 258.524 22.989C257.919 22.909 257.308 22.8452 256.688 22.7995ZM280.974 64.236C280.931 64.3338 280.887 64.4317 280.842 64.529C280.887 64.4317 280.931 64.3338 280.974 64.236ZM280.782 64.6579C280.735 64.7571 280.689 64.8561 280.641 64.9548C280.689 64.8561 280.735 64.7571 280.782 64.6579ZM281.379 63.2839C281.327 63.4149 281.272 63.5452 281.217 63.6755C281.272 63.5453 281.327 63.4149 281.379 63.2839ZM281.852 62.0212C281.812 62.1377 281.77 62.2539 281.728 62.3698C281.77 62.2539 281.812 62.1377 281.852 62.0212ZM282.289 60.654C282.255 60.7706 282.22 60.8867 282.184 61.0026C282.22 60.8867 282.255 60.7705 282.289 60.654ZM282.142 61.1384C282.106 61.2539 282.07 61.3692 282.033 61.4841C282.07 61.3692 282.106 61.2539 282.142 61.1384ZM282.541 59.7311C282.508 59.8594 282.474 59.9874 282.44 60.1149C282.474 59.9874 282.508 59.8594 282.541 59.7311ZM224.885 53.3093C224.874 53.0165 224.865 52.7222 224.861 52.4265C224.865 52.7222 224.874 53.0165 224.885 53.3093ZM236.662 40.4138C236.758 40.2536 236.854 40.0947 236.954 39.9382C236.854 40.0947 236.758 40.2536 236.662 40.4138ZM236.662 40.4138C236.644 40.443 236.625 40.4714 236.608 40.5007C236.625 40.4714 236.644 40.443 236.662 40.4138ZM272.412 41.6833C272.518 41.8796 272.621 42.078 272.72 42.278C272.621 42.078 272.518 41.8796 272.412 41.6833ZM267.544 25.7263C267.648 25.7786 267.752 25.8317 267.856 25.8854C267.752 25.8317 267.648 25.7786 267.544 25.7263Z" fill="currentColor"/>
<path d="M290.804 10.8732C290.804 8.28946 288.866 6.35166 286.282 6.35166H279.284V0H297.693V79.665H290.804V10.8732Z" fill="currentColor"/>
<path d="M382.766 81.5825C374.461 81.5825 365.844 77.6375 363.249 68.6056H370.205C372.073 72.862 376.849 75.7689 382.559 75.7689C388.995 75.7689 393.563 71.72 393.563 66.2178C393.563 60.6118 390.137 58.1202 384.635 56.3553L377.368 54.0714C369.685 51.6836 364.495 46.9081 364.495 38.8105C364.495 30.09 372.385 23.5496 381.52 23.5496C388.372 23.5496 396.366 26.664 398.858 36.5265H392.317C390.76 32.1663 386.711 29.3632 381.52 29.3632C375.395 29.3632 370.931 33.4121 370.931 38.499C370.931 42.8593 373.423 45.9738 379.444 47.9463L386.711 50.2302C394.29 52.618 400 56.9782 400 65.8026C400 75.0422 392.317 81.5825 382.766 81.5825Z" fill="currentColor"/>
<path d="M333.622 82.3871C333.156 82.4093 332.684 82.4233 332.206 82.4233C331.736 82.4233 331.27 82.4094 330.81 82.3871C331.27 82.4094 331.736 82.4233 332.206 82.4233C332.684 82.4233 333.156 82.4093 333.622 82.3871ZM315.822 24.559V56.6664C315.822 60.2973 316.448 63.5142 317.732 66.2895L317.737 66.3002L317.742 66.312C319.111 69.086 321.05 71.2763 323.557 72.853C326.076 74.4369 328.971 75.2143 332.206 75.2143C337.219 75.2142 341.267 73.5231 344.23 70.0805C347.249 66.6658 348.711 62.1587 348.711 56.6664V24.559H355.166V57.0346C355.166 61.732 354.247 65.8674 352.434 69.4653L352.256 69.812C350.384 73.3784 347.796 76.1578 344.488 78.1713L344.165 78.3637C340.705 80.3892 336.729 81.4144 332.206 81.4145C327.772 81.4145 323.839 80.3927 320.378 78.3696C316.902 76.2555 314.161 73.4033 312.148 69.7973C310.225 66.2094 309.245 61.9658 309.245 57.0346V24.559H315.822ZM331.095 74.1723C331.46 74.1944 331.83 74.2055 332.206 74.2055V74.2065C332.015 74.2065 331.824 74.2025 331.635 74.1967C331.454 74.1912 331.274 74.1831 331.095 74.1723ZM333.496 74.1645C333.255 74.18 333.012 74.1911 332.765 74.1977C333.012 74.1911 333.255 74.18 333.496 74.1645ZM330.786 74.1489C330.714 74.1432 330.642 74.1388 330.57 74.1323C330.642 74.1388 330.714 74.1432 330.786 74.1489ZM334.314 74.0942C334.251 74.101 334.188 74.1065 334.124 74.1127C334.188 74.1065 334.251 74.101 334.314 74.0942ZM330.297 74.103C330.205 74.093 330.112 74.0841 330.021 74.0727C330.112 74.0841 330.205 74.093 330.297 74.103ZM334.761 74.0395C334.681 74.0503 334.6 74.06 334.52 74.0698C334.6 74.06 334.681 74.0503 334.761 74.0395ZM329.763 74.0375C329.681 74.026 329.6 74.0151 329.519 74.0024C329.6 74.0151 329.681 74.026 329.763 74.0375ZM335.165 73.9799C335.056 73.9975 334.945 74.0132 334.834 74.0287C334.945 74.0132 335.056 73.9975 335.165 73.9799ZM335.551 73.9125C335.457 73.93 335.362 73.9465 335.267 73.9623C335.362 73.9465 335.457 73.93 335.551 73.9125ZM329.269 73.9594C329.165 73.9415 329.063 73.9236 328.96 73.9037C329.063 73.9236 329.165 73.9415 329.269 73.9594ZM335.938 73.8364C335.855 73.8538 335.771 73.8699 335.688 73.8862C335.771 73.8699 335.855 73.8538 335.938 73.8364ZM328.805 73.8725C328.699 73.8507 328.593 73.828 328.488 73.8041C328.593 73.8281 328.699 73.8507 328.805 73.8725ZM336.337 73.7465C336.251 73.7671 336.164 73.7869 336.077 73.8061C336.164 73.7869 336.251 73.7671 336.337 73.7465ZM328.228 73.7426C328.151 73.7237 328.075 73.7041 327.998 73.684C328.075 73.7041 328.151 73.7237 328.228 73.7426ZM336.665 73.6645C336.611 73.6787 336.557 73.6919 336.502 73.7055C336.557 73.6919 336.611 73.6787 336.665 73.6645ZM327.744 73.6147C327.665 73.5922 327.586 73.5691 327.507 73.5453C327.586 73.5691 327.665 73.5922 327.744 73.6147ZM337.123 73.5366C337.043 73.5605 336.962 73.5832 336.88 73.6059C336.962 73.5832 337.043 73.5605 337.123 73.5366ZM337.463 73.4301C337.366 73.4617 337.268 73.4922 337.169 73.5219C337.268 73.4922 337.366 73.4617 337.463 73.4301ZM327.273 73.4731C327.179 73.4433 327.087 73.412 326.994 73.3803C327.087 73.412 327.179 73.4433 327.273 73.4731ZM337.811 73.312C337.733 73.3395 337.655 73.3667 337.576 73.393C337.655 73.3667 337.733 73.3395 337.811 73.312ZM326.804 73.3139C326.714 73.2816 326.625 73.2483 326.535 73.2143C326.625 73.2483 326.714 73.2816 326.804 73.3139ZM338.13 73.1948C338.082 73.2132 338.033 73.2315 337.985 73.2495C338.033 73.2315 338.082 73.2132 338.13 73.1948ZM326.314 73.1284C326.244 73.1002 326.174 73.0707 326.105 73.0414C326.174 73.0707 326.244 73.1002 326.314 73.1284ZM338.487 73.0522C338.438 73.0721 338.39 73.0923 338.342 73.1118C338.39 73.0923 338.438 73.0721 338.487 73.0522ZM338.851 72.895C338.795 72.9199 338.74 72.944 338.684 72.9682C338.74 72.944 338.795 72.9199 338.851 72.895ZM325.833 72.9252C325.769 72.8968 325.706 72.8668 325.643 72.8373C325.706 72.8668 325.769 72.8968 325.833 72.9252ZM339.244 72.7094C339.162 72.7499 339.079 72.7897 338.995 72.8286C339.079 72.7897 339.162 72.7499 339.244 72.7094ZM325.405 72.726C325.268 72.6593 325.132 72.5902 324.997 72.519C325.132 72.5902 325.268 72.6593 325.405 72.726ZM339.57 72.5444C339.484 72.5895 339.398 72.6339 339.311 72.6772C339.398 72.6339 339.484 72.5895 339.57 72.5444ZM324.095 71.9985C324.385 72.1809 324.681 72.3513 324.983 72.5112C324.824 72.4268 324.666 72.3401 324.51 72.2495L324.095 71.9985ZM339.909 72.3608C339.824 72.4089 339.738 72.4552 339.652 72.5014C339.738 72.4552 339.824 72.4089 339.909 72.3608ZM340.195 72.1938C340.129 72.2332 340.063 72.2727 339.996 72.311C340.063 72.2727 340.129 72.2332 340.195 72.1938ZM340.544 71.978C340.468 72.027 340.391 72.0751 340.314 72.1225C340.391 72.0751 340.468 72.027 340.544 71.978ZM340.831 71.7875C340.761 71.8355 340.69 71.8826 340.618 71.9291C340.69 71.8826 340.761 71.8355 340.831 71.7875ZM341.134 71.5737C341.07 71.6202 341.006 71.667 340.941 71.7123C341.006 71.667 341.07 71.6202 341.134 71.5737ZM341.745 71.103C341.674 71.1616 341.602 71.2199 341.53 71.2768C341.602 71.2199 341.674 71.1616 341.745 71.103ZM342.119 70.7856C342.39 70.5466 342.653 70.2957 342.908 70.0317C342.653 70.2957 342.39 70.5466 342.119 70.7856ZM311.262 70.2807H311.263H311.262ZM343.966 68.8246C343.804 69.0275 343.638 69.2274 343.465 69.4223C343.638 69.2274 343.804 69.0275 343.966 68.8246ZM344.891 67.5356C344.851 67.5974 344.811 67.659 344.771 67.7202C344.811 67.659 344.851 67.5974 344.891 67.5356ZM345.498 66.5034C345.455 66.5833 345.412 66.6627 345.367 66.7416C345.412 66.6627 345.455 66.5833 345.498 66.5034ZM345.671 66.1752C345.635 66.2467 345.597 66.3174 345.56 66.3881C345.597 66.3174 345.635 66.2467 345.671 66.1752ZM345.84 65.8315C345.824 65.8657 345.808 65.9 345.791 65.934C345.808 65.9 345.824 65.8656 345.84 65.8315ZM346.019 65.4477C345.989 65.5139 345.958 65.5794 345.928 65.645C345.958 65.5794 345.989 65.5139 346.019 65.4477ZM346.181 65.0707C346.15 65.1439 346.12 65.217 346.088 65.2895C346.12 65.217 346.15 65.1439 346.181 65.0707ZM318.224 64.8686C318.164 64.7144 318.106 64.5588 318.05 64.4018C318.106 64.5588 318.164 64.7144 318.224 64.8686ZM346.328 64.7084C346.302 64.7751 346.276 64.8416 346.249 64.9077C346.276 64.8416 346.302 64.7751 346.328 64.7084ZM346.465 64.3461C346.449 64.3909 346.432 64.4354 346.415 64.4799C346.432 64.4354 346.449 64.3909 346.465 64.3461ZM346.615 63.9194C346.59 63.9947 346.564 64.0694 346.537 64.144C346.564 64.0694 346.59 63.9947 346.615 63.9194ZM317.955 64.1254C317.928 64.0459 317.901 63.9664 317.875 63.8862C317.901 63.9664 317.928 64.0459 317.955 64.1254ZM346.733 63.559C346.716 63.6122 346.699 63.6653 346.682 63.7182C346.699 63.6653 346.716 63.6122 346.733 63.559ZM317.774 63.559C317.756 63.4992 317.737 63.4395 317.719 63.3793C317.737 63.4395 317.756 63.4992 317.774 63.559ZM346.866 63.1147C346.843 63.1955 346.819 63.2758 346.795 63.3559C346.819 63.2758 346.843 63.1955 346.866 63.1147ZM317.639 63.0942C317.616 63.0131 317.594 62.9318 317.573 62.85C317.594 62.9318 317.616 63.0131 317.639 63.0942ZM346.969 62.7397C346.952 62.8057 346.933 62.8714 346.915 62.937C346.933 62.8714 346.952 62.8057 346.969 62.7397ZM317.496 62.5502C317.475 62.465 317.455 62.3794 317.435 62.2934C317.455 62.3794 317.475 62.465 317.496 62.5502ZM347.082 62.2934C347.062 62.3791 347.04 62.4643 347.019 62.5493C347.04 62.4643 347.062 62.3791 347.082 62.2934ZM347.175 61.8891C347.157 61.9741 347.137 62.0587 347.117 62.143C347.137 62.0587 347.157 61.9741 347.175 61.8891ZM317.371 62.0141C317.353 61.9289 317.335 61.8432 317.318 61.7573C317.335 61.8432 317.353 61.9289 317.371 62.0141ZM317.257 61.4526C317.241 61.3661 317.226 61.279 317.21 61.1918C317.226 61.279 317.241 61.3661 317.257 61.4526ZM347.344 61.0229C347.33 61.1013 347.316 61.1794 347.302 61.2573C347.316 61.1794 347.33 61.1013 347.344 61.0229ZM317.158 60.895C317.142 60.7968 317.127 60.6981 317.113 60.5991C317.127 60.6981 317.142 60.7968 317.158 60.895ZM347.418 60.5649C347.406 60.6442 347.395 60.7234 347.382 60.8022C347.395 60.7234 347.406 60.6442 347.418 60.5649ZM347.482 60.1284C347.469 60.2265 347.455 60.3241 347.441 60.4213C347.455 60.3241 347.469 60.2265 347.482 60.1284ZM317.072 60.3217C317.057 60.2129 317.043 60.1035 317.03 59.9936C317.043 60.1035 317.057 60.2129 317.072 60.3217ZM347.531 59.7358C347.522 59.8119 347.513 59.8877 347.503 59.9633C347.513 59.8877 347.522 59.8119 347.531 59.7358ZM317.002 59.7739C316.99 59.667 316.98 59.5595 316.969 59.4516C316.98 59.5595 316.99 59.667 317.002 59.7739ZM316.891 58.5405C316.882 58.4055 316.876 58.2697 316.869 58.1332C316.876 58.2697 316.882 58.4055 316.891 58.5405ZM347.684 57.684C347.679 57.8347 347.672 57.9844 347.664 58.1332C347.672 57.9844 347.679 57.8347 347.684 57.684ZM333.931 74.1323C333.795 74.1442 333.658 74.1535 333.52 74.1625C333.658 74.1535 333.795 74.1442 333.931 74.1323ZM341.515 71.2895C341.417 71.3659 341.318 71.4397 341.218 71.5131C341.318 71.4397 341.417 71.3659 341.515 71.2895ZM342.082 70.8178C341.999 70.8906 341.916 70.9631 341.831 71.0336C341.916 70.9631 341.999 70.8906 342.082 70.8178ZM344.669 67.8735C344.618 67.9489 344.565 68.0227 344.512 68.0971C344.565 68.0227 344.618 67.9489 344.669 67.8735ZM344.442 68.1967C344.372 68.2942 344.301 68.391 344.229 68.4868C344.301 68.391 344.372 68.2942 344.442 68.1967ZM344.211 68.5102C344.146 68.596 344.08 68.6806 344.013 68.7651C344.08 68.6806 344.146 68.596 344.211 68.5102ZM345.296 66.8686C345.244 66.9601 345.19 67.0508 345.136 67.1411C345.19 67.0508 345.244 66.9601 345.296 66.8686ZM345.102 67.1977C345.038 67.3027 344.973 67.4069 344.907 67.5102C344.973 67.4069 345.038 67.3027 345.102 67.1977ZM318.366 65.2192C318.318 65.1029 318.27 64.9865 318.224 64.8686C318.27 64.9865 318.318 65.1029 318.366 65.2192Z" fill="currentColor"/>
<path d="M194.988 81.7069V81.7079C194.811 81.7079 194.634 81.7065 194.458 81.704V81.703C194.634 81.7055 194.811 81.7069 194.988 81.7069ZM194.27 23.91C199.244 23.9101 203.6 25.0361 207.364 27.2635L207.37 27.2665C211.222 29.5002 214.224 32.6171 216.386 36.6317L216.391 36.6395L216.396 36.6483C218.627 40.5732 219.756 45.1341 219.756 50.3544C219.756 50.9577 219.719 51.6865 219.641 52.5438C219.581 53.1426 219.471 53.8473 219.312 54.6591H172.941L173.055 55.6005C173.418 58.5976 174.256 61.3326 175.577 63.7948L175.582 63.8026L175.585 63.8094C177.493 67.2099 180.114 69.874 183.439 71.786L183.448 71.7899C186.859 73.7037 190.753 74.6502 195.107 74.6503C198.637 74.6502 201.9 74.0344 204.885 72.7909L204.904 72.7821C207.612 71.5781 209.947 69.8601 211.906 67.6376L216.102 71.9266C213.646 74.6616 210.647 76.828 207.096 78.4237C203.38 80.0493 199.347 80.866 194.988 80.8661C189.627 80.866 184.843 79.6973 180.615 77.3759L180.207 77.1483C175.868 74.6686 172.422 71.2624 169.863 66.9198C167.392 62.5925 166.151 57.7152 166.151 52.2684C166.151 46.8994 167.395 42.1011 169.866 37.8524L169.868 37.8466L170.105 37.4423C172.561 33.2941 175.848 30.0258 179.973 27.6259C184.223 25.1529 188.983 23.9101 194.27 23.91ZM176.32 63.3973C176.763 64.1885 177.248 64.9373 177.771 65.6444C177.518 65.3026 177.273 64.9521 177.038 64.5907C176.788 64.2044 176.548 63.806 176.319 63.3973H176.32ZM194.608 29.8573C183.661 29.8573 176.163 36.9578 173.93 47.2831C173.713 48.2869 174.504 49.2018 175.531 49.202H212.27C213.199 49.202 213.959 48.4453 213.897 47.5184C213.183 36.8481 205.65 29.8573 194.608 29.8573ZM216.697 35.4657C216.843 35.7178 216.988 35.9729 217.127 36.2323H217.126C216.987 35.9731 216.843 35.7178 216.697 35.4657Z" fill="currentColor"/>
</svg>
